<svg width="2382" height="576" xmlns="http://www.w3.org/2000/svg" xmlns:xlink="http://www.w3.org/1999/xlink" xml:space="preserve" overflow="hidden"><g transform="translate(-1470 -834)"><path d="M2282.79 1130.09C2272.86 1130.09 2264.05 1132.19 2256.35 1136.4 2248.65 1140.61 2242.65 1146.43 2238.35 1153.86 2234.05 1161.29 2231.89 1169.54 2231.89 1178.63 2231.89 1187.87 2234.05 1196.17 2238.35 1203.51 2242.65 1210.86 2248.65 1216.64 2256.35 1220.85 2264.05 1225.06 2272.86 1227.16 2282.79 1227.16 2292.72 1227.16 2301.58 1225.06 2309.36 1220.85 2317.14 1216.64 2323.14 1210.86 2327.36 1203.51 2331.58 1196.17 2333.69 1187.87 2333.69 1178.63 2333.69 1169.54 2331.58 1161.29 2327.36 1153.86 2323.14 1146.43 2317.14 1140.61 2309.36 1136.4 2301.58 1132.19 2292.72 1130.09 2282.79 1130.09ZM2282.79 1112.5C2295.87 1112.5 2307.46 1115.31 2317.55 1120.92 2327.65 1126.54 2335.47 1134.25 2341.02 1144.08 2346.56 1153.9 2349.33 1165 2349.33 1177.39 2349.33 1187.95 2347.14 1197.49 2342.75 1205.99 2338.37 1214.49 2331.95 1221.47 2323.51 1226.92L2396.26 1226.92 2396.26 1244.5 2217.49 1244.5 2217.49 1227.66 2243.32 1227.66C2234.71 1222.38 2228.09 1215.4 2223.45 1206.73 2218.82 1198.07 2216.5 1188.28 2216.5 1177.39 2216.5 1165.17 2219.27 1154.11 2224.82 1144.2 2230.36 1134.3 2238.18 1126.54 2248.28 1120.92 2258.38 1115.31 2269.88 1112.5 2282.79 1112.5ZM2217.49 966.5 2363.73 1031.63C2375.98 1036.92 2384.67 1043.02 2389.8 1049.96 2394.93 1056.89 2397.5 1065.23 2397.5 1074.97 2397.5 1081.24 2396.51 1087.11 2394.52 1092.55 2392.53 1098 2389.56 1102.71 2385.58 1106.67L2372.42 1098.5C2379.04 1091.89 2382.35 1083.97 2382.35 1074.72 2382.35 1068.78 2380.7 1063.7 2377.39 1059.49 2374.08 1055.28 2368.45 1051.36 2360.51 1047.73L2347.84 1042.03 2217.49 1100.23 2217.49 1081.9 2328.48 1032.87 2217.49 983.836Z" stroke="#EB2A7E" stroke-width="4.58333" stroke-linecap="round" stroke-linejoin="round" stroke-miterlimit="10" fill="#EB2A7E" fill-rule="evenodd"/><path d="M2548.63 1143.84C2520.46 1143.84 2506.38 1153.09 2506.38 1171.6 2506.38 1180.41 2509.83 1187.39 2516.72 1192.53 2523.62 1197.67 2533.08 1200.24 2545.11 1200.24 2556.84 1200.24 2567.25 1197.52 2576.35 1192.09 2585.44 1186.65 2591.89 1178.65 2595.71 1168.07L2595.71 1143.84ZM3028.11 1054.4C3012.57 1054.4 2999.51 1058.8 2988.95 1067.62 2978.39 1076.43 2971.94 1088.47 2969.59 1103.74L3086.2 1103.74C3083.85 1088.76 3077.4 1076.8 3066.84 1067.84 3056.28 1058.88 3043.37 1054.4 3028.11 1054.4ZM3750.49 1002.41C3767.22 1002.41 3783.86 1004.24 3800.44 1007.91 3817.01 1011.59 3830.73 1016.65 3841.58 1023.11L3818.7 1072.02C3797.87 1060.27 3775.14 1054.4 3750.49 1054.4 3735.83 1054.4 3724.83 1056.45 3717.49 1060.57 3710.16 1064.68 3706.49 1069.97 3706.49 1076.43 3706.49 1083.77 3710.45 1088.91 3718.37 1091.85 3726.29 1094.79 3738.91 1097.58 3756.22 1100.22 3775.58 1103.45 3791.42 1106.9 3803.74 1110.57 3816.06 1114.25 3826.77 1120.93 3835.86 1130.62 3844.95 1140.32 3849.5 1153.83 3849.5 1171.16 3849.5 1185.84 3845.1 1198.91 3836.3 1210.37 3827.5 1221.83 3814.66 1230.71 3797.8 1237.03 3780.93 1243.34 3760.91 1246.5 3737.73 1246.5 3718.08 1246.5 3698.87 1244.08 3680.09 1239.23 3661.32 1234.38 3646.36 1228.29 3635.21 1220.94L3658.09 1171.6C3668.65 1178.35 3681.41 1183.86 3696.37 1188.12 3711.33 1192.38 3726 1194.51 3740.37 1194.51 3769.42 1194.51 3783.94 1187.31 3783.94 1172.92 3783.94 1166.16 3779.98 1161.32 3772.06 1158.38 3764.14 1155.44 3751.96 1152.95 3735.53 1150.89 3716.17 1147.95 3700.19 1144.57 3687.57 1140.76 3674.96 1136.94 3664.03 1130.18 3654.79 1120.49 3645.55 1110.79 3640.93 1096.99 3640.93 1079.07 3640.93 1064.09 3645.26 1050.8 3653.91 1039.2 3662.56 1027.59 3675.18 1018.56 3691.75 1012.1 3708.33 1005.64 3727.91 1002.41 3750.49 1002.41ZM3337.37 1002.41C3354.09 1002.41 3369.2 1005.71 3382.69 1012.32 3396.18 1018.93 3407.04 1028.55 3415.25 1041.18 3424.93 1028.84 3437.18 1019.3 3451.99 1012.54 3466.81 1005.78 3483.02 1002.41 3500.62 1002.41 3530.24 1002.41 3553.79 1011.15 3571.24 1028.62 3588.69 1046.1 3597.42 1072.32 3597.42 1107.27L3597.42 1242.97 3528.78 1242.97 3528.78 1117.84C3528.78 1099.05 3524.89 1085.02 3517.12 1075.77 3509.34 1066.51 3498.27 1061.89 3483.9 1061.89 3467.76 1061.89 3455 1067.1 3445.61 1077.53 3436.23 1087.96 3431.53 1103.45 3431.53 1124.01L3431.53 1242.97 3362.89 1242.97 3362.89 1117.84C3362.89 1080.54 3347.93 1061.89 3318.01 1061.89 3302.17 1061.89 3289.55 1067.1 3280.16 1077.53 3270.78 1087.96 3266.08 1103.45 3266.08 1124.01L3266.08 1242.97 3197.44 1242.97 3197.44 1005.93 3263 1005.93 3263 1033.25C3271.8 1023.26 3282.58 1015.62 3295.35 1010.34 3308.11 1005.05 3322.11 1002.41 3337.37 1002.41ZM3027.67 1002.41C3050.85 1002.41 3071.82 1007.4 3090.6 1017.39 3109.37 1027.37 3124.11 1041.69 3134.82 1060.35 3145.53 1079 3150.88 1100.66 3150.88 1125.33 3150.88 1126.22 3150.44 1132.38 3149.56 1143.84L2970.47 1143.84C2973.7 1158.53 2981.32 1170.13 2993.35 1178.65 3005.38 1187.17 3020.34 1191.42 3038.23 1191.42 3050.55 1191.42 3061.48 1189.59 3071.02 1185.92 3080.55 1182.25 3089.42 1176.44 3097.64 1168.51L3134.16 1208.17C3111.87 1233.72 3079.3 1246.5 3036.47 1246.5 3009.78 1246.5 2986.17 1241.29 2965.63 1230.86 2945.1 1220.43 2929.26 1205.96 2918.11 1187.46 2906.96 1168.95 2901.39 1147.95 2901.39 1124.45 2901.39 1101.25 2906.89 1080.32 2917.89 1061.67 2928.89 1043.02 2944 1028.48 2963.21 1018.05 2982.42 1007.62 3003.91 1002.41 3027.67 1002.41ZM2550.39 1002.41C2587.05 1002.41 2615.22 1011.15 2634.87 1028.62 2654.52 1046.1 2664.35 1072.46 2664.35 1107.71L2664.35 1242.97 2600.11 1242.97 2600.11 1213.45C2587.2 1235.48 2563.15 1246.5 2527.94 1246.5 2509.76 1246.5 2493.99 1243.42 2480.64 1237.25 2467.29 1231.08 2457.1 1222.56 2450.06 1211.69 2443.02 1200.82 2439.5 1188.49 2439.5 1174.68 2439.5 1152.65 2447.79 1135.32 2464.36 1122.69 2480.94 1110.06 2506.53 1103.74 2541.15 1103.74L2595.71 1103.74C2595.71 1088.76 2591.16 1077.24 2582.07 1069.16 2572.97 1061.08 2559.33 1057.04 2541.15 1057.04 2528.53 1057.04 2516.14 1059.02 2503.96 1062.99 2491.79 1066.95 2481.45 1072.32 2472.94 1079.07L2448.3 1031.05C2461.21 1021.94 2476.68 1014.89 2494.72 1009.9 2512.76 1004.9 2531.32 1002.41 2550.39 1002.41ZM2734.84 953.5 2803.48 953.5 2803.48 1011.22 2862.44 1011.22 2862.44 1064.09 2803.48 1064.09 2803.48 1160.58C2803.48 1170.57 2806.05 1178.28 2811.18 1183.71 2816.32 1189.15 2823.58 1191.87 2832.96 1191.87 2843.82 1191.87 2853.06 1188.93 2860.69 1183.05L2879.17 1231.52C2872.42 1236.51 2864.13 1240.26 2854.3 1242.75 2844.48 1245.25 2834.14 1246.5 2823.28 1246.5 2795.12 1246.5 2773.34 1239.3 2757.94 1224.91 2742.54 1210.52 2734.84 1189.37 2734.84 1161.46L2734.84 1064.09 2698.32 1064.09 2698.32 1011.22 2734.84 1011.22Z" stroke="#EB2A7E" stroke-width="4.58333" stroke-linecap="round" stroke-linejoin="round" stroke-miterlimit="10" fill="#EB2A7E" fill-rule="evenodd"/><path d="M1898.37 1354.31 1899.39 1356.14C1902.36 1360.46 1906.98 1363.65 1912.54 1364.69L1916.19 1364.63 1915.28 1367.74C1913.22 1378.87 1920.57 1389.57 1931.7 1391.63L1935.2 1391.57 1935.04 1396.28 1929.9 1397.62 1922.73 1399.24 1915.15 1400.71 1907.1 1402.04 1898.52 1403.22 1889.3 1404.26 1885.25 1404.62 1888.15 1397.42C1890.21 1386.29 1882.86 1375.6 1871.73 1373.54 1868.95 1373.02 1866.19 1373.09 1863.59 1373.66L1859.28 1375.54 1855.93 1372.25C1853.71 1370.78 1851.17 1369.72 1848.38 1369.21L1845.71 1368.99 1844.66 1367.09 1849.22 1368.79C1857.56 1370.34 1865.66 1366.59 1870.06 1359.93L1870.61 1358.88 1870.82 1359.09C1873.04 1360.55 1875.59 1361.61 1878.37 1362.12 1885.33 1363.41 1892.11 1361.03 1896.73 1356.34ZM1943.16 1103.1C1915.68 1103.1 1893.4 1125.38 1893.4 1152.86 1893.4 1180.35 1915.68 1202.63 1943.16 1202.63 1970.64 1202.63 1992.92 1180.35 1992.92 1152.86 1992.92 1125.38 1970.64 1103.1 1943.16 1103.1ZM1575.52 902.476C1569.7 902.476 1564.71 906.013 1562.58 911.054L1562.48 911.508 1560.25 911.283C1552.49 911.283 1546.21 917.57 1546.21 925.327 1546.21 933.083 1552.49 939.37 1560.25 939.37 1566.07 939.37 1571.06 935.834 1573.19 930.793L1573.28 930.339 1575.52 930.564C1576.49 930.564 1577.43 930.466 1578.35 930.279L1578.59 930.202 1577.25 932.19 1576.58 935.543 1575.62 935.639C1570.82 936.622 1566.91 940.052 1565.26 944.569L1564.68 947.828 1563.29 947.969C1556.89 949.278 1552.08 954.94 1552.08 961.727 1552.08 969.483 1558.37 975.771 1566.12 975.771 1571.94 975.771 1576.93 972.234 1579.06 967.193L1579.86 963.228 1581.08 963.044 1582.93 964.566C1584.05 965.323 1585.28 965.923 1586.6 966.333L1590.43 966.911 1590.24 967.062C1587.7 969.603 1586.13 973.114 1586.13 976.992 1586.13 984.748 1592.42 991.036 1600.17 991.036 1607.93 991.036 1614.22 984.748 1614.22 976.992L1614.05 976.179 1615.98 974.593C1618.52 972.052 1620.09 968.541 1620.09 964.663 1620.09 956.906 1613.8 950.619 1606.05 950.619L1604.39 950.785 1603.94 948.552 1606.05 948.764C1609.92 948.764 1613.43 947.192 1615.98 944.651L1617.28 942.723 1618.96 942.893 1621.08 942.68 1621.29 943.71C1622.35 946.23 1624.13 948.374 1626.37 949.889L1629.25 951.27 1630.09 955.452C1631.69 959.232 1634.9 962.167 1638.86 963.398L1639.81 963.542 1641.32 965.787C1643.86 968.328 1647.37 969.9 1651.25 969.9L1653.06 969.627 1654.83 972.245C1656.1 973.515 1657.61 974.544 1659.29 975.254L1661.6 975.971 1663.05 978.116C1665.59 980.657 1669.1 982.229 1672.98 982.229 1680.73 982.229 1687.02 975.941 1687.02 968.185L1686.5 964.747 1687.47 965.274C1689.15 965.984 1691 966.378 1692.94 966.378 1696.82 966.378 1700.33 964.806 1702.87 962.264L1705.16 958.865 1707.21 958.229C1712.25 956.097 1715.79 951.106 1715.79 945.288 1715.79 943.35 1715.4 941.502 1714.69 939.822L1712.43 936.482 1714.69 933.142C1715.4 931.462 1715.79 929.614 1715.79 927.675 1715.79 919.919 1709.5 913.632 1701.74 913.632 1693.99 913.632 1687.7 919.919 1687.7 927.675 1687.7 929.614 1688.09 931.462 1688.8 933.142L1691.06 936.482 1689.49 938.812 1688.76 938.921C1687.44 939.332 1686.21 939.931 1685.09 940.688L1683.25 942.203 1682.11 941.265 1682.32 939.417C1682.32 931.661 1676.04 925.374 1668.28 925.374 1664.4 925.374 1660.89 926.946 1658.35 929.487L1657.75 930.377 1655.18 931.174 1654.78 931.394 1654.37 931.174C1652.69 930.464 1650.84 930.07 1648.9 930.07 1647.93 930.07 1646.99 930.169 1646.07 930.356L1645.76 930.454 1645.06 929.31C1642.49 926.189 1638.59 924.199 1634.23 924.199L1632.11 924.413 1631.9 923.383C1629.77 918.343 1624.78 914.806 1618.96 914.806 1615.08 914.806 1611.57 916.378 1609.03 918.919L1607.73 920.847 1606.05 920.677C1604.11 920.677 1602.26 921.07 1600.58 921.78L1600.2 921.987C1600.91 920.307 1601.3 918.459 1601.3 916.52 1601.3 908.764 1595.01 902.476 1587.26 902.476 1585.32 902.476 1583.47 902.87 1581.79 903.58L1581.39 903.799 1580.98 903.58C1579.3 902.87 1577.46 902.476 1575.52 902.476ZM1732.63 836.5 1801.92 836.535 1825.09 836.713 1842.07 837.034 1856.12 837.497 1868.35 838.102 1874.44 838.519 1868.14 841.063C1865.03 843.538 1862.6 846.937 1861.32 851.016 1857.9 861.891 1863.94 873.481 1874.81 876.902 1877.53 877.757 1880.3 878.021 1882.97 877.766L1885.89 876.899 1884.97 879.045 1884.5 881.323 1883.4 882.901C1882.74 884.101 1882.18 885.385 1881.75 886.744 1881.11 888.783 1880.8 890.848 1880.8 892.879L1880.94 893.882 1879.8 894.621C1876.69 897.096 1874.26 900.495 1872.98 904.573 1871.27 910.011 1871.92 915.627 1874.37 920.312L1875.82 922.133 1875.33 924.492C1875.21 925.662 1875.2 926.826 1875.31 927.97L1876.83 933.075 1876.62 933.136C1872.89 935.08 1869.91 938.446 1868.55 942.775 1868.21 943.856 1867.98 944.947 1867.87 946.033L1867.87 946.639 1865.99 944.279C1864.24 942.79 1862.17 941.619 1859.83 940.886L1859.46 940.846 1860.59 933.582C1860.62 925.749 1857.15 918.303 1851.24 913.277L1849.97 912.577 1850.5 909.999C1851.35 901.812 1846.36 893.886 1838.21 891.32 1828.88 888.388 1818.95 893.567 1816.02 902.889 1815.28 905.22 1815.06 907.589 1815.28 909.876L1816.44 913.777 1813.81 916.312C1811.58 918.938 1809.82 922.045 1808.72 925.541 1807.08 930.784 1807.14 936.157 1808.6 941.056L1809.61 943.55 1809.03 944.107C1806.8 946.733 1805.04 949.84 1803.94 953.336 1802.84 956.831 1802.5 960.384 1802.83 963.817L1803.04 964.898 1796.59 966.812C1792.58 968.905 1789.36 972.531 1787.89 977.191 1787.34 978.939 1787.08 980.709 1787.07 982.449L1787.8 987.472 1785.96 988.017C1781.95 990.11 1778.73 993.736 1777.26 998.397 1776.53 1000.73 1776.3 1003.1 1776.52 1005.38L1777.35 1008.18 1773.04 1009.46C1770.29 1010.89 1768.08 1013.38 1767.08 1016.57 1766.58 1018.17 1766.42 1019.8 1766.57 1021.37L1767.47 1024.38 1766.51 1024.66C1762.5 1026.76 1759.28 1030.38 1757.82 1035.04L1757.18 1038.12 1756.51 1037.75C1751.71 1036.24 1746.68 1037.86 1743.62 1041.46L1741.32 1045.64 1737.98 1043.8C1731.58 1041.79 1724.77 1045.34 1722.76 1051.73 1720.75 1058.12 1724.3 1064.94 1730.69 1066.95 1735.49 1068.45 1740.52 1066.83 1743.58 1063.23L1745.89 1059.06 1749.23 1060.9C1754.02 1062.41 1759.05 1060.79 1762.12 1057.18L1763.79 1054.14 1769.39 1057.23C1771.72 1057.96 1774.09 1058.19 1776.37 1057.97L1780.48 1056.75 1780.12 1058.47C1779.76 1061.98 1780.47 1065.44 1782.04 1068.45L1784.49 1071.52 1779.91 1075.16C1778.42 1076.91 1777.25 1078.98 1776.52 1081.31 1773.59 1090.63 1778.77 1100.57 1788.09 1103.5 1792.75 1104.97 1797.57 1104.41 1801.58 1102.31L1802.95 1101.22 1806.52 1104.9C1809.14 1107.14 1812.25 1108.89 1815.74 1109.99L1825.22 1111 1824.37 1112.99C1821.43 1122.31 1826.61 1132.25 1835.93 1135.18 1845.26 1138.11 1855.19 1132.93 1858.12 1123.61 1861.06 1114.29 1855.88 1104.36 1846.55 1101.42L1844.4 1101.2 1846.91 1097.58C1847.76 1096.04 1848.48 1094.39 1849.03 1092.64 1850.13 1089.14 1850.47 1085.59 1850.14 1082.16L1849.99 1081.4 1851.32 1081.54C1858.18 1080.89 1864.32 1076.23 1866.52 1069.24 1869.45 1059.91 1864.27 1049.98 1854.95 1047.05 1845.63 1044.11 1835.69 1049.29 1832.76 1058.62L1832.51 1059.82 1831.67 1059.36C1826.43 1057.71 1821.06 1057.77 1816.16 1059.23L1815.35 1059.6 1815.35 1058.59C1814.69 1051.73 1810.03 1045.59 1803.04 1043.39 1800.71 1042.66 1798.34 1042.43 1796.05 1042.65L1791.95 1043.87 1792.3 1042.15C1792.72 1038.06 1791.69 1034.03 1789.53 1030.7L1787.44 1028.44 1787.9 1028.08C1788.92 1026.88 1789.73 1025.45 1790.23 1023.86L1790.56 1020.77 1795.82 1021.33 1798.56 1020.51 1801.19 1023.81C1802.94 1025.3 1805.01 1026.47 1807.34 1027.2 1816.66 1030.13 1826.6 1024.95 1829.53 1015.63 1831.73 1008.64 1829.37 1001.3 1824.11 996.834L1818.44 993.704 1820.24 991.104C1820.81 990.076 1821.29 988.976 1821.65 987.811L1821.89 986.681 1831.78 987.728 1835.11 986.911 1835.64 988.697C1837.73 992.712 1841.36 995.929 1846.02 997.395 1855.34 1000.33 1865.27 995.147 1868.21 985.825 1869.67 981.165 1869.11 976.351 1867.02 972.335L1865.89 970.919 1868.01 969.227C1869.5 967.477 1870.67 965.405 1871.4 963.074 1871.77 961.909 1872.01 960.734 1872.13 959.565L1872.14 958.421 1873.58 960.227C1875.2 961.61 1877.12 962.697 1879.29 963.378 1887.94 966.1 1897.17 961.291 1899.89 952.635 1900.57 950.471 1900.78 948.271 1900.58 946.147L1899.49 942.465 1901.11 941.982C1905.13 939.888 1908.35 936.263 1909.81 931.602 1910.55 929.271 1910.77 926.902 1910.55 924.614L1909.81 922.11 1910.71 920.805C1911.38 919.605 1911.93 918.321 1912.36 916.962 1912.79 915.602 1913.07 914.232 1913.21 912.867L1913.22 909.793 1914.31 909.085C1917.42 906.61 1919.86 903.212 1921.14 899.133L1921.61 896.855 1922.7 895.276C1923.37 894.077 1923.92 892.793 1924.35 891.434 1927.77 880.558 1921.73 868.968 1910.85 865.547 1908.14 864.692 1905.37 864.428 1902.7 864.683L1899.78 865.55 1900.7 863.404C1901.56 860.686 1901.82 857.922 1901.56 855.253L1901.54 855.106 1901.94 855.15C1905.38 854.821 1908.63 853.492 1911.29 851.37L1916.64 843.576 1922.73 844.759 1929.9 846.378 1936.7 848.145 1943.16 850.06 1949.32 852.126 1955.19 854.343 1960.79 856.714 1966.15 859.239 1971.27 861.921 1976.17 864.762 1980.85 867.764 1985.33 870.931 1989.61 874.264 1993.7 877.769 1997.6 881.448 2001.32 885.306 2004.87 889.348 2008.25 893.579 2011.45 898.007 2014.5 902.637 2017.38 907.479 2020.1 912.543 2022.66 917.839 2025.07 923.381 2027.33 929.184 2029.43 935.266 2031.39 941.65 2033.19 948.361 2034.85 955.433 2036.35 962.905 2037.72 970.829 2038.93 979.273 2040.01 988.324 2040.93 998.106 2041.72 1008.8 2042.36 1020.67 2042.86 1034.2 2043.22 1050.28 2043.43 1071.27 2043.5 1122 2043.43 1172.73 2043.22 1193.72 2042.86 1209.8 2042.36 1223.33 2041.72 1235.2 2040.93 1245.89 2040.01 1255.68 2038.93 1264.73 2037.72 1273.17 2036.35 1281.09 2034.85 1288.57 2033.19 1295.64 2031.39 1302.35 2029.43 1308.73 2027.33 1314.82 2025.07 1320.62 2022.66 1326.16 2020.1 1331.46 2017.38 1336.52 2014.5 1341.36 2011.45 1345.99 2008.25 1350.42 2004.87 1354.65 2001.32 1358.69 1997.6 1362.55 1993.7 1366.23 1989.61 1369.74 1985.33 1373.07 1982.05 1375.39 1980.88 1372.71C1977.91 1368.39 1973.29 1365.2 1967.72 1364.16 1965.29 1363.71 1962.88 1363.71 1960.57 1364.1L1955.11 1366.02 1954.23 1363.31C1951.6 1357.28 1946.12 1352.61 1939.17 1351.32L1935.52 1351.38 1936.43 1348.27C1938.49 1337.14 1931.14 1326.45 1920.01 1324.38 1913.06 1323.09 1906.27 1325.48 1901.66 1330.17L1900.01 1332.2 1899 1330.37C1896.03 1326.04 1891.41 1322.85 1885.84 1321.82 1877.5 1320.27 1869.39 1324.02 1864.99 1330.69L1864.44 1331.73 1864.24 1331.53C1863.13 1330.79 1861.93 1330.16 1860.67 1329.65L1857.67 1328.78 1857.86 1326.49 1857.79 1326.12 1861.55 1325.68C1869.35 1323.96 1875.75 1317.74 1877.3 1309.39 1879.36 1298.26 1872.01 1287.57 1860.88 1285.5 1849.75 1283.44 1839.06 1290.79 1836.99 1301.92 1836.74 1303.31 1836.63 1304.69 1836.65 1306.06L1836.69 1306.42 1832.96 1306.87C1831.01 1307.3 1829.15 1308.01 1827.43 1308.96L1824.01 1311.56 1823.49 1311.15 1820.37 1309.5 1821.23 1306.54C1823.29 1295.41 1815.94 1284.72 1804.81 1282.66L1801.74 1282.4 1801.33 1278.89C1800.9 1276.94 1800.19 1275.08 1799.23 1273.36L1798.59 1272.51 1800.31 1270.76 1803.28 1272.32C1804.55 1272.84 1805.88 1273.23 1807.27 1273.49 1818.4 1275.55 1829.09 1268.2 1831.16 1257.07 1833.22 1245.94 1825.87 1235.25 1814.74 1233.18 1809.18 1232.15 1803.72 1233.47 1799.4 1236.44L1796.69 1238.71 1794.03 1237.31C1792.77 1236.8 1791.43 1236.41 1790.04 1236.15 1784.48 1235.12 1779.02 1236.44 1774.7 1239.41L1772.67 1241.48 1770.32 1240.8 1766.78 1240.5 1767.58 1237.74C1769.13 1229.39 1765.38 1221.29 1758.71 1216.89L1757.29 1216.14 1758.01 1215.4C1759.48 1213.18 1760.53 1210.64 1761.05 1207.85 1763.11 1196.72 1755.76 1186.03 1744.63 1183.97 1739.07 1182.94 1733.61 1184.26 1729.29 1187.23L1726.06 1190.51 1724.23 1186.29C1721.26 1181.97 1716.64 1178.78 1711.07 1177.75 1699.94 1175.68 1689.25 1183.03 1687.19 1194.16 1685.12 1205.29 1692.47 1215.99 1703.6 1218.05 1709.17 1219.08 1714.62 1217.76 1718.95 1214.79L1721.95 1211.73 1722.1 1212.29C1723.67 1215.91 1726.28 1219.03 1729.61 1221.23L1731.04 1221.98 1730.31 1222.72C1728.85 1224.94 1727.79 1227.49 1727.28 1230.27 1725.21 1241.4 1732.56 1252.09 1743.69 1254.16L1747.24 1254.45 1746.43 1257.21C1745.53 1262.08 1746.43 1266.87 1748.66 1270.88L1749.58 1272.04 1744.33 1277.38C1742.86 1279.6 1741.81 1282.15 1741.29 1284.93 1740.78 1287.72 1740.85 1290.47 1741.42 1293.07L1743.99 1298.99 1743.19 1299.81 1741.55 1302.93 1738.59 1302.07 1735.45 1301.81 1734.26 1299.07C1732.78 1296.91 1730.88 1295.03 1728.66 1293.57L1725.35 1291.83 1724.91 1288.12C1723.62 1282.27 1719.8 1277.21 1714.45 1274.39L1709.45 1272.66 1710.4 1269.4C1712.46 1258.27 1705.11 1247.57 1693.98 1245.51 1682.85 1243.45 1672.16 1250.8 1670.1 1261.93 1668.29 1271.67 1673.69 1281.07 1682.53 1284.65L1685.68 1285.57 1684.74 1288.79C1683.19 1297.13 1686.94 1305.24 1693.6 1309.64L1696.24 1311.02 1692.61 1312.2C1686.57 1314.83 1681.91 1320.31 1680.62 1327.26 1679.08 1335.61 1682.82 1343.71 1689.49 1348.11L1689.99 1348.37 1690.33 1351.28 1687.24 1352.99C1682.92 1355.96 1679.73 1360.58 1678.7 1366.14 1676.64 1377.27 1683.99 1387.97 1695.11 1390.03 1706.24 1392.09 1716.94 1384.74 1719 1373.61 1719.26 1372.22 1719.37 1370.84 1719.35 1369.48L1718.99 1366.49 1722.08 1364.78C1726.4 1361.81 1729.59 1357.19 1730.62 1351.62 1731.14 1348.84 1731.07 1346.08 1730.5 1343.49L1729.85 1342.01 1731.11 1342.37C1733.2 1342.76 1735.27 1342.82 1737.27 1342.58L1738.63 1342.21 1737.5 1346.11C1735.44 1357.24 1742.79 1367.93 1753.91 1369.99 1765.04 1372.06 1775.74 1364.71 1777.8 1353.58 1778.06 1352.19 1778.17 1350.8 1778.15 1349.44L1777.7 1345.63 1779.48 1342.24 1779.51 1342.13 1782.1 1342.35C1786.19 1342.27 1790.07 1340.97 1793.31 1338.74L1794.25 1337.79 1796.51 1341.44C1797.77 1342.94 1799.26 1344.28 1800.92 1345.38L1801.92 1345.9 1801.4 1347.39C1800.37 1352.95 1801.69 1358.41 1804.66 1362.73L1810.23 1368.2 1808.77 1370.96C1808.26 1372.23 1807.87 1373.56 1807.61 1374.95L1807.38 1377.74 1806.79 1378.23C1804.02 1381.05 1802.03 1384.69 1801.26 1388.86 1800.23 1394.43 1801.55 1399.88 1804.52 1404.21L1807.79 1407.42 1801.92 1407.46 1732.63 1407.5 1701.28 1407.39 1681.93 1407.14 1666.61 1406.75 1653.56 1406.22 1642.02 1405.54 1631.57 1404.72 1621.99 1403.76 1613.1 1402.65 1604.79 1401.39 1596.99 1399.99 1589.62 1398.45 1582.64 1396.76 1576.01 1394.92 1569.71 1392.93 1563.7 1390.78 1557.96 1388.49 1552.48 1386.04 1547.24 1383.44 1542.24 1380.68 1537.45 1377.76 1532.87 1374.67 1528.49 1371.42 1524.31 1368 1520.31 1364.41 1516.5 1360.65 1512.86 1356.7 1509.4 1352.56 1506.11 1348.23 1502.99 1343.7 1500.02 1338.97 1497.22 1334.02 1494.58 1328.84 1492.09 1323.42 1489.76 1317.75 1487.58 1311.81 1485.55 1305.58 1483.68 1299.04 1481.95 1292.15 1480.36 1284.88 1478.93 1277.19 1477.64 1269.02 1476.49 1260.28 1475.49 1250.89 1474.64 1240.68 1473.92 1229.44 1473.35 1216.81 1473.11 1208.52 1476.62 1210.86C1479.13 1211.91 1481.89 1212.49 1484.79 1212.49 1490.58 1212.49 1495.83 1210.17 1499.62 1206.42L1503.94 1200.09 1508.03 1202.81C1510.48 1203.84 1513.17 1204.4 1516 1204.4 1518.83 1204.4 1521.52 1203.84 1523.97 1202.81L1530.06 1198.76 1531.03 1201.94 1531.76 1203.02 1531.48 1203.08C1523.59 1206.38 1518.05 1214.1 1518.05 1223.1 1518.05 1235.1 1527.9 1244.83 1540.05 1244.83 1552.2 1244.83 1562.05 1235.1 1562.05 1223.1 1562.05 1220.1 1561.44 1217.24 1560.32 1214.64L1559.75 1213.8 1559.87 1213.77C1567.77 1210.4 1573.31 1202.49 1573.31 1193.28 1573.31 1187.15 1570.84 1181.59 1566.86 1177.56L1562.39 1174.51 1563.07 1171.05C1563.07 1164.35 1559.08 1158.61 1553.39 1156.15L1551.42 1155.75 1551.82 1151.85 1551.76 1151.31 1553.9 1150.88 1557.64 1148.33 1558.26 1151.46C1560.82 1157.63 1566.83 1161.96 1573.82 1161.96 1583.15 1161.96 1590.7 1154.26 1590.7 1144.78 1590.7 1142.4 1590.23 1140.14 1589.38 1138.09L1586.75 1134.12 1590.63 1133.32C1596.69 1130.71 1600.94 1124.61 1600.94 1117.49 1600.94 1110.37 1596.69 1104.27 1590.63 1101.66L1589.45 1101.42 1589.92 1100.57C1591.08 1097.85 1591.73 1094.86 1591.73 1091.72 1591.73 1087.01 1590.28 1082.63 1587.8 1079L1585.8 1076.62 1586.19 1076.06C1587.12 1073.88 1587.64 1071.49 1587.64 1068.98 1587.64 1058.93 1579.39 1050.79 1569.21 1050.79 1559.04 1050.79 1550.79 1058.93 1550.79 1068.98 1550.79 1070.24 1550.92 1071.46 1551.17 1072.65L1552.2 1075.91 1549.61 1079C1547.13 1082.63 1545.68 1087.01 1545.68 1091.72 1545.68 1094.07 1546.04 1096.34 1546.71 1098.48L1548.17 1101.48 1548.03 1101.71 1547.83 1102.71 1544.14 1102.33C1530.3 1102.33 1519.07 1113.64 1519.07 1127.6L1519.11 1128.01 1516.28 1128.57C1509.39 1131.45 1504.04 1137.22 1501.8 1144.34L1500.87 1150.41 1496.95 1151.22C1490.7 1153.9 1486.32 1160.19 1486.32 1167.51L1487.12 1171.52 1484.79 1171.05 1483.06 1171.4 1483.25 1169.54C1483.25 1164.09 1480.96 1159.17 1477.26 1155.6L1472.5 1152.51 1472.5 1086.13 1472.64 1059.88 1472.93 1041.83 1473.35 1027.19 1473.92 1014.56 1474.64 1003.32 1475.49 993.114 1476.49 983.715 1477.64 974.981 1478.93 966.807 1480.36 959.116 1481.95 951.85 1483.68 944.963 1485.55 938.419 1487.58 932.189 1489.76 926.249 1492.09 920.579 1494.58 915.161 1497.22 909.983 1500.02 905.031 1502.99 900.296 1506.11 895.768 1509.4 891.439 1512.86 887.303 1516.5 883.354 1520.31 879.586 1524.31 875.995 1528.49 872.576 1532.87 869.327 1537.45 866.243 1542.24 863.321 1547.24 860.56 1552.48 857.957 1557.96 855.509 1563.7 853.216 1569.71 851.075 1576.01 849.084 1582.64 847.243 1589.62 845.55 1596.99 844.005 1604.79 842.606 1613.1 841.352 1621.99 840.244 1631.57 839.279 1642.02 838.459 1653.56 837.782 1666.61 837.247 1681.93 836.856 1701.28 836.606Z" stroke="#EB2A7E" stroke-width="4.58333" stroke-linecap="round" stroke-linejoin="round" stroke-miterlimit="10" fill="#EB2A7E" fill-rule="evenodd"/></g></svg>